<svg width="32" height="32" viewBox="0 0 32 32" fill="none" xmlns="http://www.w3.org/2000/svg">
  <!-- Background circle -->
  <circle cx="16" cy="16" r="16" fill="#003d29"/>
  
  <!-- Leaf/Sprout icon -->
  <path d="M16 8C16 8 12 12 12 18C12 22 14 24 16 24C18 24 20 22 20 18C20 12 16 8 16 8Z" fill="#a3e635"/>
  
  <!-- Central vein -->
  <path d="M16 8V24" stroke="#003d29" stroke-width="1" opacity="0.3"/>
  
  <!-- Small leaves -->
  <path d="M16 14C14 13 12 13 10 14C12 15 14 15 16 14Z" fill="#a3e635" opacity="0.8"/>
  <path d="M16 18C18 17 20 17 22 18C20 19 18 19 16 18Z" fill="#a3e635" opacity="0.8"/>
  
  <!-- Text F/A -->
  <text x="16" y="28" font-family="Arial, sans-serif" font-size="6" font-weight="bold" text-anchor="middle" fill="#a3e635">FA</text>
</svg>
